<?xml version="1.0" standalone="no"?>
<!DOCTYPE svg PUBLIC "-//W3C//DTD SVG 20010904//EN"
 "http://www.w3.org/TR/2001/REC-SVG-20010904/DTD/svg10.dtd">
<svg version="1.0" xmlns="http://www.w3.org/2000/svg"
 width="1000.000000pt" height="1000.000000pt" viewBox="0 0 1000.000000 1000.000000"
 preserveAspectRatio="xMidYMid meet">
<metadata>
Created by potrace 1.11, written by Peter Selinger 2001-2013
</metadata>
<g transform="translate(0.000000,1000.000000) scale(0.100000,-0.100000)"
fill="#000000" stroke="none">
<path d="M710 5000 l0 -5000 4400 0 4400 0 0 5000 0 5000 -4400 0 -4400 0 0
-5000z m8700 0 l0 -4900 -4300 0 -4300 0 0 4900 0 4900 4300 0 4300 0 0 -4900z"/>
<path d="M1486 9358 c-3 -18 -15 -141 -26 -273 -11 -132 -23 -261 -26 -287
l-6 -47 249 -3 c240 -3 249 -4 289 -27 60 -34 87 -87 82 -161 -6 -81 -46 -145
-113 -179 -68 -35 -160 -35 -230 0 -59 29 -85 62 -92 117 l-6 42 -119 0 -120
0 7 -57 c9 -78 54 -172 107 -224 51 -50 141 -95 223 -110 87 -16 238 -6 307
20 115 44 217 146 255 253 28 81 25 237 -5 303 -40 86 -109 145 -212 181 -45
16 -83 19 -209 19 l-153 0 6 80 c4 44 10 101 13 128 l6 47 258 0 259 0 0 105
0 105 -370 0 -369 0 -5 -32z"/>
<path d="M3380 4430 l0 -2290 1138 3 c1204 4 1172 3 1367 50 217 53 455 170
610 301 52 45 79 72 149 150 84 94 179 290 218 454 17 68 22 516 7 567 -48
164 -86 251 -149 342 -138 201 -400 379 -644 437 l-49 12 57 18 c255 80 518
308 624 541 13 28 27 57 31 65 38 72 75 280 75 420 1 324 -99 567 -328 796
-155 154 -336 267 -521 324 -38 12 -79 26 -90 30 -28 12 -108 30 -185 41 -36
6 -79 14 -96 20 -18 5 -464 9 -1122 9 l-1092 0 0 -2290z m1940 1550 c221 -21
343 -71 456 -184 72 -72 106 -129 140 -236 26 -82 24 -265 -3 -345 -45 -130
-50 -139 -134 -227 -54 -56 -189 -138 -229 -138 -9 0 -20 -4 -25 -9 -29 -27
-166 -34 -722 -38 l-573 -4 0 595 0 596 503 -1 c276 0 540 -4 587 -9z m120
-1950 c68 -13 133 -29 155 -39 149 -65 231 -133 294 -242 32 -54 46 -95 62
-177 20 -102 21 -109 5 -206 -43 -263 -203 -415 -488 -468 -41 -7 -262 -12
-650 -15 l-588 -3 0 580 0 580 583 -1 c320 0 602 -4 627 -9z"/>
</g>
</svg>
